<?xml version="1.0" encoding="utf-8"?>
<!-- Generator: Adobe Illustrator 18.1.1, SVG Export Plug-In . SVG Version: 6.00 Build 0)  -->
<svg version="1.1" id="Layer_1" xmlns="http://www.w3.org/2000/svg" xmlns:xlink="http://www.w3.org/1999/xlink" x="0px" y="0px"
	 viewBox="0 0 384 118.5" enable-background="new 0 0 384 118.5" xml:space="preserve">
<g>
	<path fill="#231F20" d="M73,58.9c0.7,1.9,1,3.8,1,5.9c0,3.3-1,5.8-2.9,7.5c-1.9,1.8-4.6,2.7-7.9,2.7c-0.7,0-1.8-0.1-3.1-0.2
		l0.6-2.8c0.9,0.2,1.8,0.3,2.5,0.3c5.3,0,8-2.5,8-7.5c0-1.8-0.5-3.7-1.6-5.9H73z"/>
	<path fill="#231F20" d="M92.1,68.2L92.1,68.2c-2.3,0-3.8-0.8-4.6-2.3c-1.6,1.5-4.3,2.3-8,2.3h-1v-3.1h0.9c4.7,0,7-1,7-3.1
		c0-0.7-0.2-1.6-0.6-2.7c-0.4-1.1-1.3-2.8-2.7-5.2h3.3c1.4,2.9,2.3,5.4,2.7,7.4c0.3,1.4,0.7,2.3,1.1,2.8s1,0.8,1.7,0.8h0.2V68.2z"/>
	<path fill="#231F20" d="M98.3,62c0,2.3-0.4,3.9-1.3,4.8c-0.9,0.9-2.2,1.4-4,1.4h-1v-3.1h1.2c1.6,0,2.4-1.1,2.4-3.2v-2.9h2.7V62z
		 M94.9,72.7h-2.3v-2.3h2.3V72.7z M99.1,72.7h-2.3v-2.3h2.3V72.7z"/>
	<path fill="#231F20" d="M111.1,68.2h-1c-1.9,0-3.2-0.5-4-1.5c-0.8-1-1.2-2.6-1.2-4.7V45.2h2.7v16.8c0,2.1,0.8,3.2,2.4,3.2h1.2V68.2
		z"/>
	<path fill="#231F20" d="M118.9,68.2L118.9,68.2c-1.8,0-3.1-0.4-4-1.3c-0.8,0.9-2.1,1.3-3.9,1.3H111v-3.1h0.2c1.6,0,2.4-1.1,2.4-3.2
		v-2.9h2.7v2.9c0,2.1,0.8,3.2,2.4,3.2h0.2V68.2z M116.4,54.9h-2.8v-2.8h2.8V54.9z"/>
	<path fill="#231F20" d="M141.2,61.6c0,2.1-0.5,3.8-1.4,4.9c-0.9,1.1-2.2,1.7-3.9,1.7h-0.3c-1.8,0-3.2-0.5-4-1.4
		c-0.4,0.4-0.9,0.8-1.6,1.1c-0.7,0.3-1.3,0.4-1.8,0.4c-1.6,0-2.7-0.5-3.4-1.4c-0.9,1-2.1,1.4-3.8,1.4h-2.2v-3.1h2.1
		c1.6,0,2.4-1.1,2.4-3.2v-2.9h2.7v2.6c0,1.2,0.2,2.1,0.5,2.7c0.3,0.6,0.9,0.8,1.6,0.8c0.8,0,1.3-0.3,1.6-0.8
		c0.3-0.5,0.5-1.5,0.5-2.8v-2.5h2.7v2.5c0,2.4,0.9,3.6,2.6,3.6h0.3c1.7,0,2.5-1.2,2.5-3.6v-4.5h2.7V61.6z M129.8,54.4h-2.3V52h2.3
		V54.4z M131.9,51.1h-2.3v-2.3h2.3V51.1z M134,54.4h-2.3V52h2.3V54.4z"/>
	<path fill="#231F20" d="M187.6,68.2h-0.1c-0.5,0-1.3-0.3-2.4-1c-0.8-0.5-1.3-0.7-1.5-0.7c-0.2,0-0.4,0.1-0.6,0.2s-0.2,0.3-0.2,0.5
		c0,0.2,0.3,0.5,0.8,0.9c0.7,0.6,1.1,1.2,1.1,1.6c0,1.3-1.1,2.5-3.4,3.6c-2.3,1.1-5,1.6-8.4,1.6c-3.1,0-5.5-0.6-7.4-1.7
		c-1.8-1.1-2.7-2.7-2.7-4.8c0-1,0.2-2.3,0.7-3.7l2.5,0.6c-0.3,1.1-0.5,2.1-0.5,3c0,1.2,0.6,2,1.7,2.6c1.1,0.6,3,0.8,5.7,0.8
		c2.6,0,4.8-0.3,6.5-0.8c1.7-0.5,2.5-1.1,2.5-1.8c0-0.2-0.2-0.5-0.7-1c-0.8-0.7-1.2-1.3-1.2-1.8c0-0.8,0.3-1.5,1-2.1
		c0.7-0.6,1.5-0.9,2.5-0.9c0.6,0,1.5,0.3,2.5,1c0.7,0.4,1.2,0.6,1.4,0.6h0.1V68.2z M182.2,76.8h-2v-2h2V76.8z M186.1,76.8h-2v-2h2
		V76.8z"/>
	<path fill="#231F20" d="M204.7,68.2h-0.2c-1,0-1.8-0.2-2.6-0.7c-0.8-0.4-1.4-1-1.7-1.8c-0.5,0.8-1.2,1.4-2.1,1.8s-1.8,0.6-2.9,0.6
		c-1.4,0-2.5-0.4-3.4-1.3c-0.6,0.9-1.8,1.3-3.5,1.3h-0.7v-3.1h0.7c0.6,0,1.1-0.2,1.4-0.5c0.4-0.3,0.6-0.9,0.9-1.7
		c0.6-2.2,1.4-3.9,2.3-4.8c0.9-1,2-1.5,3.3-1.5c1.2,0,2.2,0.4,3,1.1c0.8,0.8,1.4,1.8,1.8,3.1c0.8,2.9,2,4.3,3.6,4.3h0.2V68.2z
		 M192.9,64.3c0.8,0.6,1.6,0.9,2.4,0.9c0.9,0,1.6-0.3,2.1-0.8s0.8-1.2,0.8-2c0-0.8-0.2-1.4-0.7-1.9c-0.4-0.5-1-0.8-1.6-0.8
		C194.8,59.7,193.7,61.2,192.9,64.3z"/>
	<path fill="#231F20" d="M212.6,68.2L212.6,68.2c-1.8,0-3.1-0.4-4-1.3c-0.8,0.9-2.1,1.3-3.9,1.3h-0.1v-3.1h0.2
		c1.6,0,2.4-1.1,2.4-3.2v-2.9h2.7v2.9c0,2.1,0.8,3.2,2.4,3.2h0.2V68.2z M207.7,72.7h-2.3v-2.3h2.3V72.7z M211.9,72.7h-2.3v-2.3h2.3
		V72.7z"/>
	<path fill="#231F20" d="M220.4,68.2L220.4,68.2c-1.8,0-3.1-0.4-4-1.3c-0.8,0.9-2.1,1.3-3.9,1.3h-0.1v-3.1h0.2
		c1.6,0,2.4-1.1,2.4-3.2V45.2h2.7v16.8c0,2.1,0.8,3.2,2.4,3.2h0.2V68.2z"/>
	<path fill="#231F20" d="M238.3,68.2h-3.8c-1.6,0-3.3-0.7-5.2-2.2c-1.8,1.4-3.6,2.2-5.2,2.2h-3.8v-3.1h3.9c1.1,0,2.1-0.2,3-0.6
		c-3.1-2.3-4.6-4.2-4.6-5.6c0-1.2,0.7-2.1,2.1-2.8s3-1.1,4.7-1.1c1.8,0,3.4,0.3,4.8,1s2.1,1.6,2.1,2.8c0,0.7-0.4,1.5-1.3,2.5
		c-0.8,1-2,2-3.4,3.1c1,0.4,2,0.6,3,0.6h3.9V68.2z M229.3,63.2c2.8-1.8,4.2-2.9,4.2-3.5c0-1-1.4-1.5-4.2-1.5c-2.8,0-4.2,0.5-4.2,1.4
		C225.1,60.3,226.5,61.4,229.3,63.2z"/>
	<path fill="#231F20" d="M244.5,62c0,2.3-0.4,3.9-1.3,4.8c-0.9,0.9-2.2,1.4-4,1.4h-1v-3.1h1.2c1.6,0,2.4-1.1,2.4-3.2v-2.9h2.7V62z
		 M241,54.9h-2.3v-2.3h2.3V54.9z M245.2,54.9h-2.3v-2.3h2.3V54.9z"/>
	<path fill="#231F20" d="M279.2,68.2L279.2,68.2c-1.3,0-2.3-0.3-2.9-0.8c-0.5,2.4-1.6,4.3-3.5,5.6s-4.2,2-7,2
		c-0.7,0-1.8-0.1-3.1-0.2l0.6-2.8c0.9,0.2,1.8,0.3,2.5,0.3c5.3,0,8-2.5,8-7.5c0-1.2-0.3-2.7-0.8-4.2h3c0.2,1,0.4,1.9,0.5,2.7
		c0.1,1.3,0.9,1.9,2.5,1.9h0.2V68.2z M275.6,56.3h-2.8v-2.8h2.8V56.3z"/>
	<path fill="#231F20" d="M293.1,48.1l-5.8,2.3c-1.8,0.7-2.9,1.2-3.3,1.4s-0.7,0.4-0.9,0.6s-0.3,0.4-0.3,0.5c0,0.5,0.4,1.2,1.3,2.3
		l2.8,3.4c0.6,0.7,1,1.4,1.3,2.1c0.3,0.7,0.4,1.3,0.4,2c0,1.7-0.6,3.1-1.8,4c-1.2,1-2.9,1.4-5,1.4h-2.8v-3.1h2.9
		c1.2,0,2.2-0.2,2.9-0.7c0.7-0.5,1.1-1.1,1.1-1.8c0-0.8-0.5-1.8-1.4-3l-2.9-3.5c-0.6-0.7-1-1.3-1.2-1.8c-0.2-0.5-0.4-1-0.4-1.6
		c0-0.8,0.3-1.6,1-2.2s1.7-1.2,3.1-1.8l8.8-3.7V48.1z"/>
	<path fill="#231F20" d="M308.4,68.2L308.4,68.2c-1.3,0-2.3-0.3-2.9-0.8c-0.5,2.4-1.6,4.3-3.5,5.6s-4.2,2-7,2
		c-0.7,0-1.8-0.1-3.1-0.2l0.6-2.8c0.9,0.2,1.8,0.3,2.5,0.3c5.3,0,8-2.5,8-7.5c0-1.2-0.3-2.7-0.8-4.2h3c0.2,1,0.4,1.9,0.5,2.7
		c0.1,1.3,0.9,1.9,2.5,1.9h0.2V68.2z"/>
	<path fill="#231F20" d="M308.4,65.2h0.7c0.6,0,1.1-0.2,1.4-0.5c0.4-0.3,0.6-0.9,0.9-1.7c0.6-2.2,1.4-3.9,2.3-4.8
		c0.9-1,2-1.5,3.3-1.5c1.4,0,2.5,0.6,3.5,1.7c1,1.1,1.5,2.5,1.5,4.1c0,1.9-0.6,3.3-1.7,4.3c-1.1,1-2.5,1.5-4.2,1.5
		c-1.4,0-2.5-0.4-3.4-1.3c-0.6,0.9-1.8,1.3-3.4,1.3h-0.8V65.2z M313.8,64.3c0.8,0.6,1.6,0.9,2.4,0.9c0.9,0,1.6-0.3,2.1-0.8
		s0.8-1.2,0.8-2c0-0.8-0.2-1.4-0.7-1.9c-0.4-0.5-1-0.8-1.6-0.8C315.6,59.7,314.5,61.2,313.8,64.3z"/>
</g>
</svg>
