<?xml version="1.0" encoding="utf-8"?>
<!-- Generator: Adobe Illustrator 18.1.1, SVG Export Plug-In . SVG Version: 6.00 Build 0)  -->
<svg version="1.1" id="Layer_1" xmlns="http://www.w3.org/2000/svg" xmlns:xlink="http://www.w3.org/1999/xlink" x="0px" y="0px"
	 viewBox="0 0 384 118.5" enable-background="new 0 0 384 118.5" xml:space="preserve">
<g>
	<path fill="#231F20" d="M24.6,62.2c0-0.8-0.3-1.5-1-2.1s-1.8-1-3.4-1.4c-2-0.5-3.5-1.2-4.6-2.1c-1.1-0.9-1.6-2-1.6-3.4
		c0-1.4,0.6-2.6,1.8-3.6c1.2-1,2.7-1.5,4.6-1.5c2,0,3.6,0.6,4.8,1.7c1.2,1.1,1.8,2.4,1.7,3.9l0,0.1h-2.4c0-1.1-0.4-2-1.1-2.6
		c-0.7-0.7-1.7-1-3.1-1c-1.2,0-2.2,0.3-2.9,0.8c-0.7,0.6-1,1.3-1,2.2c0,0.8,0.4,1.5,1.1,2s1.9,1,3.5,1.4c1.9,0.5,3.4,1.2,4.4,2.1
		s1.5,2.1,1.5,3.5c0,1.5-0.6,2.7-1.8,3.6s-2.8,1.4-4.8,1.4c-1.8,0-3.5-0.5-4.9-1.5c-1.4-1-2.1-2.3-2.1-4l0-0.1H16
		c0,1.2,0.4,2.1,1.3,2.7c0.9,0.6,2,0.9,3.2,0.9c1.3,0,2.3-0.3,3-0.8C24.2,63.8,24.6,63.1,24.6,62.2z"/>
	<path fill="#231F20" d="M36.4,65.1c0.8,0,1.6-0.3,2.2-0.8c0.6-0.5,0.9-1.1,0.9-1.9h2.2l0,0.1c0,1.2-0.5,2.2-1.6,3.2
		c-1.1,0.9-2.4,1.4-3.8,1.4c-2,0-3.5-0.7-4.6-2c-1.1-1.3-1.6-2.9-1.6-4.9v-0.5c0-2,0.5-3.6,1.6-4.9c1.1-1.3,2.6-2,4.6-2
		c1.6,0,2.9,0.5,3.9,1.4c1,0.9,1.5,2.1,1.5,3.5l0,0.1h-2.3c0-0.8-0.3-1.6-0.9-2.1s-1.3-0.9-2.2-0.9c-1.3,0-2.2,0.5-2.8,1.4
		c-0.6,0.9-0.8,2.1-0.8,3.5v0.5c0,1.4,0.3,2.6,0.8,3.5C34.1,64.7,35.1,65.1,36.4,65.1z"/>
	<path fill="#231F20" d="M47.6,54.9c0.5-0.7,1.1-1.2,1.7-1.5c0.7-0.4,1.5-0.6,2.3-0.6c1.5,0,2.6,0.4,3.4,1.3
		c0.8,0.9,1.2,2.2,1.2,4.1v8.6h-2.5v-8.6c0-1.1-0.2-2-0.7-2.5c-0.5-0.5-1.2-0.8-2.2-0.8c-0.7,0-1.3,0.2-1.9,0.5
		c-0.6,0.3-1,0.8-1.4,1.3v10.1h-2.5V47h2.5V54.9z"/>
	<path fill="#231F20" d="M62.7,53.1l0.2,2c0.5-0.7,1-1.3,1.7-1.7c0.7-0.4,1.5-0.6,2.4-0.6c1.5,0,2.6,0.4,3.4,1.3s1.2,2.2,1.2,4v8.7
		h-2.5v-8.6c0-1.2-0.2-2.1-0.7-2.6c-0.5-0.5-1.2-0.8-2.2-0.8c-0.7,0-1.4,0.2-1.9,0.5c-0.6,0.3-1,0.8-1.3,1.4v10h-2.5V53.1H62.7z"/>
	<path fill="#231F20" d="M81.4,67.1c-1.9,0-3.4-0.6-4.6-1.9c-1.1-1.3-1.7-2.9-1.7-5v-0.6c0-2,0.6-3.6,1.7-4.9
		c1.2-1.3,2.5-1.9,4.1-1.9c1.9,0,3.3,0.6,4.2,1.7s1.4,2.6,1.4,4.5v1.6h-8.9l0,0.1c0,1.3,0.4,2.4,1,3.2c0.6,0.8,1.5,1.3,2.7,1.3
		c0.8,0,1.6-0.1,2.2-0.4c0.6-0.2,1.2-0.6,1.7-1l1,1.6c-0.5,0.5-1.1,0.9-1.9,1.2C83.5,66.9,82.6,67.1,81.4,67.1z M81,54.8
		c-0.8,0-1.6,0.4-2.1,1.1s-1,1.6-1.1,2.7l0,0.1h6.3v-0.3c0-1-0.3-1.8-0.8-2.5C82.9,55.2,82.1,54.8,81,54.8z"/>
	<path fill="#231F20" d="M92.7,49.6h-2.5V47h2.5V49.6z M92.7,66.8h-2.5V53.1h2.5V66.8z"/>
	<path fill="#231F20" d="M96.5,60.2c0-2.2,0.5-4,1.4-5.3c0.9-1.4,2.3-2,4-2c0.8,0,1.5,0.1,2.1,0.4c0.6,0.3,1.2,0.7,1.6,1.3V47h2.5
		v19.8h-2l-0.3-1.7c-0.4,0.6-1,1.1-1.7,1.5s-1.4,0.5-2.3,0.5c-1.7,0-3-0.6-3.9-1.8s-1.4-2.8-1.4-4.8V60.2z M99,60.5
		c0,1.4,0.3,2.5,0.9,3.3c0.6,0.8,1.4,1.3,2.6,1.3c0.7,0,1.4-0.2,1.9-0.5s0.9-0.8,1.2-1.4v-6.4c-0.3-0.6-0.7-1-1.2-1.4
		c-0.5-0.3-1.1-0.5-1.8-0.5c-1.2,0-2.1,0.5-2.7,1.5c-0.6,1-0.9,2.3-0.9,3.9V60.5z"/>
	<path fill="#231F20" d="M118.1,67.1c-1.9,0-3.4-0.6-4.6-1.9c-1.1-1.3-1.7-2.9-1.7-5v-0.6c0-2,0.6-3.6,1.7-4.9
		c1.2-1.3,2.5-1.9,4.1-1.9c1.9,0,3.3,0.6,4.2,1.7s1.4,2.6,1.4,4.5v1.6h-8.9l0,0.1c0,1.3,0.4,2.4,1,3.2c0.6,0.8,1.5,1.3,2.7,1.3
		c0.8,0,1.6-0.1,2.2-0.4c0.6-0.2,1.2-0.6,1.7-1l1,1.6c-0.5,0.5-1.1,0.9-1.9,1.2C120.2,66.9,119.2,67.1,118.1,67.1z M117.7,54.8
		c-0.8,0-1.6,0.4-2.1,1.1s-1,1.6-1.1,2.7l0,0.1h6.3v-0.3c0-1-0.3-1.8-0.8-2.5C119.5,55.2,118.7,54.8,117.7,54.8z"/>
	<path fill="#231F20" d="M133.1,55.3l-1.3-0.1c-0.7,0-1.2,0.2-1.7,0.5c-0.5,0.3-0.8,0.8-1,1.3v9.8h-2.5V53.1h2.2l0.2,2
		c0.4-0.7,0.9-1.3,1.4-1.7c0.6-0.4,1.2-0.6,2-0.6c0.2,0,0.4,0,0.5,0s0.3,0.1,0.4,0.1L133.1,55.3z"/>
	<path fill="#231F20" d="M154.5,58.3H146v6.6h9.8v2h-12.3V48.4h12.1v2H146v6h8.5V58.3z"/>
	<path fill="#231F20" d="M157.9,60.2c0-2.2,0.5-4,1.4-5.3c0.9-1.4,2.3-2,4-2c0.8,0,1.5,0.1,2.1,0.4c0.6,0.3,1.2,0.7,1.6,1.3V47h2.5
		v19.8h-2l-0.3-1.7c-0.4,0.6-1,1.1-1.7,1.5s-1.4,0.5-2.3,0.5c-1.7,0-3-0.6-3.9-1.8s-1.4-2.8-1.4-4.8V60.2z M160.4,60.5
		c0,1.4,0.3,2.5,0.9,3.3c0.6,0.8,1.4,1.3,2.6,1.3c0.7,0,1.4-0.2,1.9-0.5s0.9-0.8,1.2-1.4v-6.4c-0.3-0.6-0.7-1-1.2-1.4
		c-0.5-0.3-1.1-0.5-1.8-0.5c-1.2,0-2.1,0.5-2.7,1.5c-0.6,1-0.9,2.3-0.9,3.9V60.5z"/>
	<path fill="#231F20" d="M182.5,64.8c-0.4,0.7-1,1.3-1.7,1.7s-1.5,0.6-2.3,0.6c-1.5,0-2.7-0.5-3.5-1.4s-1.3-2.4-1.3-4.5v-8.1h2.5
		v8.1c0,1.5,0.2,2.5,0.6,3c0.4,0.6,1.1,0.8,2,0.8c0.9,0,1.6-0.2,2.2-0.5c0.6-0.4,1-0.9,1.3-1.5v-9.9h2.5v13.7h-2.2L182.5,64.8z"/>
	<path fill="#231F20" d="M194.7,65.1c0.8,0,1.6-0.3,2.2-0.8c0.6-0.5,0.9-1.1,0.9-1.9h2.2l0,0.1c0,1.2-0.5,2.2-1.6,3.2
		c-1.1,0.9-2.4,1.4-3.8,1.4c-2,0-3.5-0.7-4.6-2c-1.1-1.3-1.6-2.9-1.6-4.9v-0.5c0-2,0.5-3.6,1.6-4.9c1.1-1.3,2.6-2,4.6-2
		c1.6,0,2.9,0.5,3.9,1.4c1,0.9,1.5,2.1,1.5,3.5l0,0.1h-2.3c0-0.8-0.3-1.6-0.9-2.1s-1.3-0.9-2.2-0.9c-1.3,0-2.2,0.5-2.8,1.4
		c-0.6,0.9-0.8,2.1-0.8,3.5v0.5c0,1.4,0.3,2.6,0.8,3.5C192.4,64.7,193.4,65.1,194.7,65.1z"/>
	<path fill="#231F20" d="M211.9,66.8c-0.1-0.4-0.2-0.8-0.2-1.1c0-0.3-0.1-0.6-0.1-1c-0.5,0.7-1.1,1.2-1.8,1.7
		c-0.7,0.4-1.6,0.7-2.4,0.7c-1.4,0-2.5-0.4-3.3-1.1c-0.7-0.7-1.1-1.7-1.1-3c0-1.3,0.5-2.3,1.6-3.1c1.1-0.7,2.5-1.1,4.3-1.1h2.7v-1.4
		c0-0.8-0.2-1.4-0.7-1.9s-1.2-0.7-2.1-0.7c-0.8,0-1.5,0.2-2,0.6c-0.5,0.4-0.8,0.9-0.8,1.5h-2.4l0-0.1c-0.1-1,0.4-1.9,1.4-2.7
		c1-0.8,2.3-1.2,3.9-1.2c1.6,0,2.8,0.4,3.8,1.2s1.4,1.9,1.4,3.4v6.6c0,0.5,0,1,0.1,1.4s0.1,0.9,0.3,1.3H211.9z M207.7,65
		c0.9,0,1.7-0.2,2.5-0.7c0.7-0.5,1.2-1,1.4-1.6v-2.2h-2.8c-1,0-1.8,0.3-2.4,0.8c-0.6,0.5-0.9,1.1-0.9,1.8c0,0.6,0.2,1.1,0.6,1.4
		S207,65,207.7,65z"/>
	<path fill="#231F20" d="M221.6,49.8v3.3h2.6V55h-2.6v8.3c0,0.6,0.1,1.1,0.4,1.4c0.3,0.3,0.6,0.4,1.1,0.4c0.1,0,0.3,0,0.5-0.1
		c0.2,0,0.3-0.1,0.5-0.1l0.3,1.7c-0.2,0.2-0.5,0.3-0.8,0.4c-0.4,0.1-0.7,0.1-1.1,0.1c-1,0-1.8-0.3-2.4-0.9s-0.9-1.6-0.9-2.9V55h-2.2
		v-1.9h2.2v-3.3H221.6z"/>
	<path fill="#231F20" d="M230.5,49.6H228V47h2.5V49.6z M230.5,66.8H228V53.1h2.5V66.8z"/>
	<path fill="#231F20" d="M234.2,59.9c0-2,0.5-3.7,1.7-5s2.6-2,4.5-2c1.9,0,3.4,0.7,4.5,2c1.1,1.3,1.7,3,1.7,5v0.3c0,2-0.5,3.7-1.7,5
		c-1.1,1.3-2.6,2-4.5,2s-3.4-0.7-4.5-2c-1.1-1.3-1.7-3-1.7-5V59.9z M236.7,60.1c0,1.5,0.3,2.7,0.9,3.6c0.6,0.9,1.5,1.4,2.7,1.4
		c1.2,0,2.1-0.5,2.7-1.4c0.6-0.9,0.9-2.1,0.9-3.6v-0.3c0-1.4-0.3-2.6-0.9-3.6c-0.6-1-1.5-1.4-2.7-1.4c-1.2,0-2.1,0.5-2.7,1.4
		c-0.6,1-0.9,2.2-0.9,3.6V60.1z"/>
	<path fill="#231F20" d="M252.4,53.1l0.2,2c0.5-0.7,1-1.3,1.7-1.7c0.7-0.4,1.5-0.6,2.4-0.6c1.5,0,2.6,0.4,3.4,1.3s1.2,2.2,1.2,4v8.7
		h-2.5v-8.6c0-1.2-0.2-2.1-0.7-2.6c-0.5-0.5-1.2-0.8-2.2-0.8c-0.7,0-1.4,0.2-1.9,0.5c-0.6,0.3-1,0.8-1.3,1.4v10h-2.5V53.1H252.4z"/>
	<path fill="#231F20" d="M273.9,66.8c-0.1-0.4-0.2-0.8-0.2-1.1c0-0.3-0.1-0.6-0.1-1c-0.5,0.7-1.1,1.2-1.8,1.7
		c-0.7,0.4-1.6,0.7-2.4,0.7c-1.4,0-2.5-0.4-3.3-1.1c-0.7-0.7-1.1-1.7-1.1-3c0-1.3,0.5-2.3,1.6-3.1c1.1-0.7,2.5-1.1,4.3-1.1h2.7v-1.4
		c0-0.8-0.2-1.4-0.7-1.9s-1.2-0.7-2.1-0.7c-0.8,0-1.5,0.2-2,0.6c-0.5,0.4-0.8,0.9-0.8,1.5h-2.4l0-0.1c-0.1-1,0.4-1.9,1.4-2.7
		c1-0.8,2.3-1.2,3.9-1.2c1.6,0,2.8,0.4,3.8,1.2s1.4,1.9,1.4,3.4v6.6c0,0.5,0,1,0.1,1.4s0.1,0.9,0.3,1.3H273.9z M269.7,65
		c0.9,0,1.7-0.2,2.5-0.7c0.7-0.5,1.2-1,1.4-1.6v-2.2h-2.8c-1,0-1.8,0.3-2.4,0.8c-0.6,0.5-0.9,1.1-0.9,1.8c0,0.6,0.2,1.1,0.6,1.4
		S269,65,269.7,65z"/>
	<path fill="#231F20" d="M282.9,66.8h-2.5V47h2.5V66.8z"/>
	<path fill="#231F20" d="M307.8,60.9L307.8,60.9c0.1,1.8-0.5,3.3-1.8,4.4s-2.9,1.8-5,1.8c-2.1,0-3.8-0.7-5.1-2.2
		c-1.3-1.5-2-3.4-2-5.6V56c0-2.3,0.7-4.2,2-5.6c1.3-1.5,3-2.2,5.1-2.2s3.8,0.6,5,1.7s1.8,2.6,1.8,4.4l0,0.1h-2.4
		c0-1.3-0.4-2.3-1.1-3.1s-1.8-1.1-3.2-1.1c-1.4,0-2.5,0.6-3.3,1.7c-0.8,1.1-1.2,2.5-1.2,4.2v3.3c0,1.7,0.4,3.1,1.2,4.2
		c0.8,1.1,1.9,1.7,3.3,1.7c1.4,0,2.5-0.4,3.2-1.1c0.8-0.7,1.1-1.8,1.1-3.1H307.8z"/>
	<path fill="#231F20" d="M317,67.1c-1.9,0-3.4-0.6-4.6-1.9c-1.1-1.3-1.7-2.9-1.7-5v-0.6c0-2,0.6-3.6,1.7-4.9
		c1.2-1.3,2.5-1.9,4.1-1.9c1.9,0,3.3,0.6,4.2,1.7s1.4,2.6,1.4,4.5v1.6h-8.9l0,0.1c0,1.3,0.4,2.4,1,3.2c0.6,0.8,1.5,1.3,2.7,1.3
		c0.8,0,1.6-0.1,2.2-0.4c0.6-0.2,1.2-0.6,1.7-1l1,1.6c-0.5,0.5-1.1,0.9-1.9,1.2C319.1,66.9,318.1,67.1,317,67.1z M316.6,54.8
		c-0.8,0-1.6,0.4-2.1,1.1s-1,1.6-1.1,2.7l0,0.1h6.3v-0.3c0-1-0.3-1.8-0.8-2.5C318.4,55.2,317.6,54.8,316.6,54.8z"/>
	<path fill="#231F20" d="M327.8,53.1l0.2,2c0.5-0.7,1-1.3,1.7-1.7c0.7-0.4,1.5-0.6,2.4-0.6c1.5,0,2.6,0.4,3.4,1.3s1.2,2.2,1.2,4v8.7
		h-2.5v-8.6c0-1.2-0.2-2.1-0.7-2.6c-0.5-0.5-1.2-0.8-2.2-0.8c-0.7,0-1.4,0.2-1.9,0.5c-0.6,0.3-1,0.8-1.3,1.4v10h-2.5V53.1H327.8z"/>
	<path fill="#231F20" d="M344.1,49.8v3.3h2.6V55h-2.6v8.3c0,0.6,0.1,1.1,0.4,1.4c0.3,0.3,0.6,0.4,1.1,0.4c0.1,0,0.3,0,0.5-0.1
		c0.2,0,0.3-0.1,0.5-0.1l0.3,1.7c-0.2,0.2-0.5,0.3-0.8,0.4c-0.4,0.1-0.7,0.1-1.1,0.1c-1,0-1.8-0.3-2.4-0.9s-0.9-1.6-0.9-2.9V55h-2.2
		v-1.9h2.2v-3.3H344.1z"/>
	<path fill="#231F20" d="M356.1,67.1c-1.9,0-3.4-0.6-4.6-1.9c-1.1-1.3-1.7-2.9-1.7-5v-0.6c0-2,0.6-3.6,1.7-4.9
		c1.2-1.3,2.5-1.9,4.1-1.9c1.9,0,3.3,0.6,4.2,1.7s1.4,2.6,1.4,4.5v1.6h-8.9l0,0.1c0,1.3,0.4,2.4,1,3.2c0.6,0.8,1.5,1.3,2.7,1.3
		c0.8,0,1.6-0.1,2.2-0.4c0.6-0.2,1.2-0.6,1.7-1l1,1.6c-0.5,0.5-1.1,0.9-1.9,1.2C358.2,66.9,357.2,67.1,356.1,67.1z M355.7,54.8
		c-0.8,0-1.6,0.4-2.1,1.1s-1,1.6-1.1,2.7l0,0.1h6.3v-0.3c0-1-0.3-1.8-0.8-2.5C357.5,55.2,356.7,54.8,355.7,54.8z"/>
	<path fill="#231F20" d="M371.1,55.3l-1.3-0.1c-0.7,0-1.2,0.2-1.7,0.5c-0.5,0.3-0.8,0.8-1,1.3v9.8h-2.5V53.1h2.2l0.2,2
		c0.4-0.7,0.9-1.3,1.4-1.7c0.6-0.4,1.2-0.6,2-0.6c0.2,0,0.4,0,0.5,0s0.3,0.1,0.4,0.1L371.1,55.3z"/>
</g>
</svg>
