<?xml version="1.0" encoding="utf-8"?>
<!-- Generator: Adobe Illustrator 18.1.1, SVG Export Plug-In . SVG Version: 6.00 Build 0)  -->
<svg version="1.1" id="Layer_1" xmlns="http://www.w3.org/2000/svg" xmlns:xlink="http://www.w3.org/1999/xlink" x="0px" y="0px"
	 viewBox="0 0 384 118.5" enable-background="new 0 0 384 118.5" xml:space="preserve">
<g>
	<path fill="#231F20" d="M79.6,66.6c0,0.7-0.4,1.1-1.3,1.1s-1.3-0.4-1.3-1V56c0-1.9-0.9-2.9-2.6-2.9h-5.8c-0.7,0-1.1-0.4-1.1-1.3
		c0-0.9,0.4-1.3,1-1.3h6c1,0,1.8,0.1,2.3,0.3c0.6,0.3,1.2,0.7,1.8,1.4c0.6,0.8,0.9,1.9,0.9,3.3V66.6z"/>
	<path fill="#231F20" d="M95.8,53.1H94v13.4c0,0.7-0.4,1.1-1.3,1.1c-0.8,0-1.2-0.3-1.2-1V53.1h-7.4c-0.7,0-1.1-0.4-1.1-1.2
		c0-0.9,0.4-1.3,1-1.3h11.9c0.7,0,1,0.4,1,1.3C96.9,52.6,96.6,53.1,95.8,53.1z"/>
	<path fill="#231F20" d="M108.4,58.4c-0.4,0.7-1,1.6-2,2.9c-0.3,0.4-0.5,0.6-0.8,0.6c-0.3,0-0.7-0.2-1.1-0.4s-0.6-0.6-0.6-0.9
		c1.9-2.8,2.9-4.5,2.9-5.3c0-1.3-1.2-2.3-2.4-2.3h-3.1c-0.7,0-1.1-0.4-1.1-1.3c0-0.8,0.4-1.2,1-1.2h3.3c1,0,2,0.3,2.8,0.8
		c0.9,0.6,1.5,1.3,1.8,2.3c0.1,0.4,0.2,0.9,0.2,1.5C109.3,56.1,109,57.2,108.4,58.4z"/>
	<path fill="#231F20" d="M120.2,58.4c-0.4,0.7-1,1.6-2,2.9c-0.3,0.4-0.5,0.6-0.8,0.6c-0.3,0-0.7-0.2-1.1-0.4s-0.6-0.6-0.6-0.9
		c1.9-2.8,2.9-4.5,2.9-5.3c0-1.3-1.2-2.3-2.4-2.3h-3.1c-0.7,0-1.1-0.4-1.1-1.3c0-0.8,0.4-1.2,1-1.2h3.3c1,0,2,0.3,2.8,0.8
		c0.9,0.6,1.5,1.3,1.8,2.3c0.1,0.4,0.2,0.9,0.2,1.5C121.1,56.1,120.8,57.2,120.2,58.4z"/>
	<path fill="#231F20" d="M133.2,65.5c0,1.2-0.6,1.9-1.8,1.9h-6.7c-0.7,0-1-0.4-1-1.2c0-0.9,0.4-1.3,1-1.3h5.1c0.5,0,0.8-0.3,0.8-0.9
		V53.8c0-0.4-0.3-0.7-0.7-0.7H128c-0.7,0-1.1-0.4-1.1-1.3c0-0.9,0.4-1.3,1-1.3h2.6c1.7,0,2.6,0.9,2.6,2.6V65.5z"/>
	<path fill="#231F20" d="M153.7,58.6c-0.6,2.5-1.8,4.4-3.5,5.7c-2.3,1.8-5.7,2.9-10,3.3l-0.3,0c-1.1,0-1.6-0.7-1.7-2.2l-0.6-14.1
		c0-0.5,0.4-0.8,1.3-0.8c0.8,0,1.2,0.4,1.3,1l0.4,7.9c1.4-0.1,2.5-0.5,3.3-1.2c0.8-0.7,1.2-2.2,1.2-4.7v-1c0-0.4,0-0.7,0-1
		c0-0.7,0.4-1.1,1.3-1.1c0.9,0,1.3,0.4,1.3,1v1.8c0,2.6-0.4,4.4-1.1,5.4c-1.3,1.8-3.7,3-5.9,3l0.3,3.4h0.9c1.2,0,2.5-0.3,4-0.8
		c1.6-0.6,2.7-1.3,3.5-2.1c1.2-1.3,2-3,2.4-5c0.2-1,0.3-2.9,0.3-5.6c0-0.7,0.4-1.1,1.3-1.1c0.9,0,1.3,0.4,1.3,1.4
		C154.3,54.5,154.1,56.8,153.7,58.6z"/>
	<path fill="#231F20" d="M176.2,58.4c-0.4,0.7-1,1.6-2,2.9c-0.3,0.4-0.5,0.6-0.8,0.6c-0.3,0-0.7-0.2-1.1-0.4s-0.6-0.6-0.6-0.9
		c1.9-2.8,2.9-4.5,2.9-5.3c0-1.3-1.2-2.3-2.4-2.3h-3.1c-0.7,0-1.1-0.4-1.1-1.3c0-0.8,0.4-1.2,1-1.2h3.3c1,0,2,0.3,2.8,0.8
		c0.9,0.6,1.5,1.3,1.8,2.3c0.1,0.4,0.2,0.9,0.2,1.5C177.1,56.1,176.8,57.2,176.2,58.4z"/>
	<path fill="#231F20" d="M192.2,63.5c-0.5,1.8-1.6,3-3.1,3.5c-0.8,0.3-2.1,0.4-3.8,0.4H181c-0.7,0-1.1-0.4-1.1-1.3
		c0-0.9,0.4-1.3,1-1.3h5.7c1.6,0,2.7-0.7,3.2-2.1c0.4-0.9,0.5-2.3,0.5-4.2c0-1.7-0.2-2.9-0.6-3.7c-0.6-1.2-1.6-1.7-3.1-1.7h-4.8
		c-0.7,0-1.1-0.4-1.1-1.3c0-0.9,0.4-1.3,1-1.3h4.3c4.4,0,6.5,2.7,6.5,8.1C192.7,60.7,192.5,62.4,192.2,63.5z"/>
	<path fill="#231F20" d="M202.9,66.8c0,0.7-0.4,1-1.2,1c-0.9,0-1.3-0.4-1.3-1V55.6c0-1.2-0.4-2-1.3-2.2l-2.1-0.6
		c-0.5-0.2-0.8-0.5-0.8-1c0-0.8,0.4-1.6,1.1-1.6c0.3,0,0.9,0.2,1.8,0.5c1.2,0.4,1.8,0.6,1.8,0.6c0.7,0.3,1.2,0.7,1.5,1.2
		c0.4,0.6,0.5,1.2,0.5,1.8V66.8z"/>
	<path fill="#231F20" d="M215.7,65.5c0,1.2-0.6,1.9-1.8,1.9h-6.7c-0.7,0-1-0.4-1-1.2c0-0.9,0.4-1.3,1-1.3h5.1c0.5,0,0.8-0.3,0.8-0.9
		V53.8c0-0.4-0.3-0.7-0.7-0.7h-1.8c-0.7,0-1.1-0.4-1.1-1.3c0-0.9,0.4-1.3,1-1.3h2.6c1.7,0,2.6,0.9,2.6,2.6V65.5z"/>
	<path fill="#231F20" d="M227.4,58.4c-0.4,0.7-1,1.6-2,2.9c-0.3,0.4-0.5,0.6-0.8,0.6c-0.3,0-0.7-0.2-1.1-0.4s-0.6-0.6-0.6-0.9
		c1.9-2.8,2.9-4.5,2.9-5.3c0-1.3-1.2-2.3-2.4-2.3h-3.1c-0.7,0-1.1-0.4-1.1-1.3c0-0.8,0.4-1.2,1-1.2h3.3c1,0,2,0.3,2.8,0.8
		c0.9,0.6,1.5,1.3,1.8,2.3c0.1,0.4,0.2,0.9,0.2,1.5C228.3,56.1,228,57.2,227.4,58.4z"/>
	<path fill="#231F20" d="M245.1,66.4c0,0.7-0.4,1.1-1.3,1.1c-0.8,0-1.2-0.4-1.2-1v-12c0-1-0.4-1.4-1.1-1.4h-7.2v13.4
		c0,0.7-0.4,1.1-1.2,1.1c-0.9,0-1.3-0.4-1.3-1v-14c0-1.3,0.7-2,2-2h7.8c2.3,0,3.5,1.2,3.5,3.6V66.4z"/>
	<path fill="#231F20" d="M265.8,52.7c-0.6,0.3-1.2,0.4-1.9,0.4l0.2,13.2c0,0.9-0.4,1.4-1.2,1.4c-0.8,0-1.2-0.5-1.2-1.4l0.1-13.2
		c-0.7,0-1.3-0.1-1.9-0.4c-0.7-0.3-1.1-0.8-1.1-1.3c0-0.7,0.3-1,1-1l0.5,0.1c0.8,0.3,1.7,0.4,2.5,0.4c0.9,0,1.8-0.1,2.5-0.4l0.5-0.1
		c0.7,0,1,0.3,1,1C266.9,51.9,266.6,52.4,265.8,52.7z"/>
	<path fill="#231F20" d="M282,63.5c-0.5,1.8-1.6,3-3.1,3.5c-0.8,0.3-2.1,0.4-3.8,0.4h-4.2c-0.7,0-1.1-0.4-1.1-1.3
		c0-0.9,0.4-1.3,1-1.3h5.7c1.6,0,2.7-0.7,3.2-2.1c0.4-0.9,0.5-2.3,0.5-4.2c0-1.7-0.2-2.9-0.6-3.7c-0.6-1.2-1.6-1.7-3.1-1.7h-4.8
		c-0.7,0-1.1-0.4-1.1-1.3c0-0.9,0.4-1.3,1-1.3h4.3c4.4,0,6.5,2.7,6.5,8.1C282.5,60.7,282.3,62.4,282,63.5z"/>
	<path fill="#231F20" d="M297.8,66.6c0,0.7-0.4,1.1-1.3,1.1s-1.3-0.4-1.3-1V56c0-1.9-0.9-2.9-2.6-2.9h-5.8c-0.7,0-1.1-0.4-1.1-1.3
		c0-0.9,0.4-1.3,1-1.3h6c1,0,1.8,0.1,2.3,0.3c0.6,0.3,1.2,0.7,1.8,1.4c0.6,0.8,0.9,1.9,0.9,3.3V66.6z"/>
	<path fill="#231F20" d="M315.8,65c0,1.3-1.1,2.4-2.3,2.4h-3.6c-0.7,0-1.1-0.4-1.1-1.3c0-0.8,0.4-1.2,1-1.2h2c1.1,0,1.6-0.3,1.6-0.9
		l-0.1-0.7l-0.8-7.6c-0.2-1.6-0.4-2.5-0.8-2.7c-0.2-0.1-0.4-0.2-0.6-0.2c-0.2,0-0.5,0.1-0.9,0.2l-3.6,1.4l-2.4,12.7
		c-0.1,0.6-0.5,1-1.1,1c-1,0-1.5-0.4-1.5-1.1v-0.2l2.8-13.5l-2.8-1.4c-0.4-0.2-0.6-0.4-0.6-0.8c0-0.6,0.7-1.6,1.3-1.6
		c0.2,0,0.9,0.3,2,0.9l2,1.2c2.4-1,4.1-1.4,5-1.4c1.9,0,3,1.7,3.3,5.2L315.8,65z"/>
</g>
</svg>
